<svg xmlns="http://www.w3.org/2000/svg" width="22.966" height="15.899" viewBox="0 0 22.966 15.899"><defs><style>.a{fill:#008fb3;}</style></defs><path class="a" d="M26.153,10.348,20.213,16.4a.107.107,0,0,0,0,.155L24.37,20.98a.716.716,0,0,1,0,1.016.72.72,0,0,1-1.016,0l-4.14-4.411a.113.113,0,0,0-.16,0l-1.01,1.027a4.445,4.445,0,0,1-3.169,1.336,4.534,4.534,0,0,1-3.235-1.375l-.972-.988a.113.113,0,0,0-.16,0L6.367,22a.72.72,0,0,1-1.016,0,.716.716,0,0,1,0-1.016l4.157-4.428a.118.118,0,0,0,0-.155L3.563,10.348a.109.109,0,0,0-.188.077V22.532A1.772,1.772,0,0,0,5.142,24.3H24.574a1.772,1.772,0,0,0,1.767-1.767V10.425A.11.11,0,0,0,26.153,10.348Z" transform="translate(-3.375 -8.399)"/><path class="a" d="M15.041,17.983a3,3,0,0,0,2.159-.905l8.662-8.816a1.735,1.735,0,0,0-1.093-.386H5.319a1.724,1.724,0,0,0-1.093.386l8.662,8.816A3,3,0,0,0,15.041,17.983Z" transform="translate(-3.558 -7.875)"/></svg>