<svg xmlns="http://www.w3.org/2000/svg" width="406.321" height="454" viewBox="0 0 406.321 454"><defs><style>.a{fill:#e29300;opacity:0.4;}.b{fill:#f1f1f1;}.c{fill:#0d0c22;}.d{fill:#008fb3;}.e{fill:#3f3d56;}.f{fill:#2f2e41;}.g{fill:#ffb8b8;}.h{opacity:0.1;}.i{fill:#d0cde1;}.j{opacity:0.2;}</style></defs><g transform="translate(0 0)"><circle class="a" cx="10.383" cy="10.383" r="10.383" transform="translate(84.974 374.548)"/><circle class="a" cx="7.283" cy="7.283" r="7.283" transform="translate(68.858 382.606)"/><path class="b" d="M689.417,367.04A177.753,177.753,0,0,0,676.96,210.632L392.975,249.952l272.148-56.717a177.465,177.465,0,0,0-316.43,132.383Z" transform="translate(-319.909 -124)"/><path class="b" d="M364.092,470.81a177.5,177.5,0,0,0,325.995,12.059Z" transform="translate(-325.093 -229.475)"/><ellipse class="c" cx="8.5" cy="8" rx="8.5" ry="8" transform="translate(65 70)"/><circle class="d" cx="8.5" cy="8.5" r="8.5" transform="translate(366 167)"/><rect class="d" width="14" height="14" transform="translate(73 236)"/><path class="e" d="M576.048,315.127s22.964-10.006,33.75.564S580.919,322.782,576.048,315.127Z" transform="translate(-389.555 -180.824)"/><path class="f" d="M607,242.819c-7.717-13.039-22.985-13.647-22.985-13.647s-14.877-1.9-24.421,17.957c-8.9,18.51-21.173,36.383-1.977,40.716l3.468-10.792,2.147,11.6a75.1,75.1,0,0,0,8.213.14c20.557-.664,40.135.194,39.5-7.183C610.117,271.8,614.43,255.366,607,242.819Z" transform="translate(-380.859 -155.971)"/><ellipse class="e" cx="38.969" cy="9.046" rx="38.969" ry="9.046" transform="translate(165.965 267.91)"/><rect class="f" width="37.68" height="1.391" transform="translate(198.623 390.73) rotate(-4.229)"/><rect class="f" width="1.391" height="15.884" transform="matrix(0.482, -0.876, 0.876, 0.482, 173.286, 384.381)"/><rect class="f" width="12.526" height="1.392" transform="translate(200.758 378.205)"/><path class="f" d="M240.891,579.968l-1.389-.095L249.94,418.432l1.389.095Z" transform="translate(-72.84 -127.258)"/><path class="f" d="M312.46,581.177,305.5,422.519l1.39-.068,6.959,158.658Z" transform="translate(-92.912 -128.48)"/><rect class="f" width="1.392" height="160.595" transform="matrix(0.997, -0.082, 0.082, 0.997, 232.079, 292.67)"/><path class="g" d="M638.826,588.5s-9.742,18.093-16.005,18.093-5.567,11.83-4.175,14.613,4.871,9.046-.7,18.093c-1.945,3.16-1.6,6.744-.321,10.071,3.575,9.321,17.483,6.5,17.039-3.476q-.007-.165-.018-.332c-.7-11.134,4.871-28.531,10.438-32.706s10.438-15.309,10.438-15.309Z" transform="translate(-401.882 -265.268)"/><path class="g" d="M545.249,582.5s9.742,18.093,16.005,18.093,5.567,11.83,4.175,14.613-4.871,9.046.7,18.093c1.945,3.16,1.6,6.744.321,10.071-3.575,9.321-17.483,6.5-17.039-3.476q.007-.165.018-.332c.7-11.134-4.871-28.531-10.438-32.706s-10.438-15.309-10.438-15.309Z" transform="translate(-375.109 -263.444)"/><path class="c" d="M537.236,451.155l-4.175,9.046s-61.237,20.18-55.67,43.84,32.706,60.541,36.881,59.149,26.443-5.567,27.139-17.4-16.005-32.706-16.005-32.706l22.964-20.876,33.416-.7L610.3,513.087s-29.922,26.443-16.7,36.881,32.706,17.4,35.489,13.221,34.1-66.108,29.227-71.675-54.278-26.443-54.278-26.443l-13.222-18.788L539.324,443.5Z" transform="translate(-359.442 -221.17)"/><path class="g" d="M579.407,287.2s3.479,22.964-3.479,25.747,13.917,14.613,13.917,14.613h11.83l7.655-16.005s-6.959-12.526-2.784-24.355S579.407,287.2,579.407,287.2Z" transform="translate(-389.086 -172.036)"/><path class="h" d="M579.407,287.2s3.479,22.964-3.479,25.747,13.917,14.613,13.917,14.613h11.83l7.655-16.005s-6.959-12.526-2.784-24.355S579.407,287.2,579.407,287.2Z" transform="translate(-389.086 -172.036)"/><path class="i" d="M571.507,317.5s7.655,8.35,9.046,9.742,7.655,9.046,20.876-2.088,14.613,2.088,14.613,2.088v83.5s-11.134-4.871-20.18,0-27.835-1.392-27.835-1.392l-3.479-86.288Z" transform="translate(-386.057 -182.849)"/><path class="d" d="M562.932,316.959s-6.5-2.783-12.07,0-25.051,16.7-23.66,22.964,19.484,50.1,6.959,70.979-14.613,26.443-14.613,26.443l30.618-16.005s23.66-14.613,21.572-23.66S562.932,316.959,562.932,316.959Z" transform="translate(-372.371 -182.309)"/><path class="d" d="M618.751,317.5s14.605,1.392,15.3,2.783,21.92,7.307,20.528,13.569-20.528,62.28-12.178,72.718,22.268,25.051,17.4,26.443-13.222-2.088-21.572,0-27.835-15.309-25.747-34.1S612.5,322.371,618.751,317.5Z" transform="translate(-400.588 -182.849)"/><path class="g" d="M571.323,506.979v6.959s-3.479,16.005,7.655,15.309,4.175-19.484,4.175-19.484l-.7-6.263Z" transform="translate(-387.961 -239.417)"/><path class="g" d="M615.061,509.5s-7.655,16.005,0,17.4,13.222-9.046,13.222-11.83S615.061,509.5,615.061,509.5Z" transform="translate(-400.385 -241.242)"/><path class="f" d="M271.892,580.559l-1.392-.033,4.175-160.05,1.392.033Z" transform="translate(-82.267 -127.879)"/><ellipse class="g" cx="1.5" cy="3" rx="1.5" ry="3" transform="translate(223 103)"/><ellipse class="g" cx="1.5" cy="3" rx="1.5" ry="3" transform="translate(182 103)"/><path class="d" d="M637.6,330.5s17.4,0,16.7,6.959-23.66,126.648-23.66,126.648-9.742-9.046-18.093-6.959Z" transform="translate(-400.655 -186.803)"/><path class="d" d="M543.945,333.5s-17.4,3.479-17.4,13.917S551.6,458.061,555.079,458.061s16.7-2.088,16.7-5.567S543.945,333.5,543.945,333.5Z" transform="translate(-374.5 -187.715)"/><path class="j" d="M557.048,363l15.657,61.23S565.4,370.655,557.048,363Z" transform="translate(-383.776 -196.687)"/><path class="j" d="M637.644,350.636l-15.835,80.056S626.87,355.254,637.644,350.636Z" transform="translate(-403.472 -192.927)"/><circle class="g" cx="20.18" cy="20.18" r="20.18" transform="translate(184.058 85.94)"/><path class="f" d="M302.5,119.545l-15.084-7.9-20.829,3.232-4.31,19.034L273,133.5l3-6.993v6.878l4.95-.191,2.873-11.133,1.8,11.851,17.6-.359Z" transform="translate(-79.766 -33.954)"/><rect class="c" width="380" height="2" transform="translate(7 452)"/><path class="f" d="M772.023,726.017l-1.392-.027a322.772,322.772,0,0,1,4.94-46.127c6.018-32.623,16.025-54.048,29.744-63.68l.8,1.139C774.068,639.821,772.039,725.157,772.023,726.017Z" transform="translate(-448.733 -273.687)"/><path class="f" d="M797.023,752.592l-1.392-.027c.03-1.541.9-37.865,15.2-47.9l.8,1.139C797.906,715.434,797.03,752.222,797.023,752.592Z" transform="translate(-456.336 -300.596)"/><circle class="d" cx="7" cy="7" r="7" transform="translate(358 329)"/><circle class="d" cx="7" cy="7" r="7" transform="translate(355 390)"/><path class="c" d="M788.933,617.69a30.911,30.911,0,0,1-2.1,15.824,28.17,28.17,0,0,1-4.736-30.25A30.915,30.915,0,0,1,788.933,617.69Z" transform="translate(-451.491 -269.759)"/><path class="c" d="M818.687,648.784a30.91,30.91,0,0,1-15.949.689,28.17,28.17,0,0,1,28.962-9.934A30.908,30.908,0,0,1,818.687,648.784Z" transform="translate(-458.498 -280.566)"/><path class="c" d="M821.14,726.221a21.665,21.665,0,0,1-11.179.483,19.744,19.744,0,0,1,20.3-6.963,21.665,21.665,0,0,1-9.121,6.48Z" transform="translate(-460.695 -305.004)"/><path class="c" d="M1.392,152.463H0V62H89.071v1.392H1.392Z" transform="translate(0 -18.856)"/><path class="c" d="M544.975,152.463h-1.392V63.392H455.9V62h89.071Z" transform="translate(-138.654 -18.856)"/><path class="c" d="M1.392,302H0v90.463H89.071v-1.392H1.392Z" transform="translate(0 -91.847)"/><path class="c" d="M544.975,302h-1.392v89.071H455.9v1.392h89.071Z" transform="translate(-138.654 -91.847)"/><rect class="c" width="97" height="1" transform="translate(25 86)"/><rect class="e" width="1.392" height="12.874" transform="translate(51.494 73.066)"/><rect class="e" width="1.392" height="12.874" transform="translate(93.942 73.066)"/><rect class="e" width="98" height="1" transform="translate(288 184)"/><rect class="e" width="1.392" height="12.874" transform="translate(314.533 171.184)"/><rect class="e" width="1.392" height="12.874" transform="translate(356.981 171.184)"/><rect class="c" width="98" height="2" transform="translate(31 249)"/><rect class="e" width="1.392" height="12.874" transform="translate(57.757 236.596)"/><rect class="e" width="1.392" height="12.874" transform="translate(100.205 236.596)"/></g></svg>